<svg xmlns="http://www.w3.org/2000/svg" xmlns:xlink="http://www.w3.org/1999/xlink" width="96" zoomAndPan="magnify" viewBox="0 0 72 30.000001" height="40" preserveAspectRatio="xMidYMid meet" version="1.0"><defs><g/></defs><g fill="#ffffff" fill-opacity="1"><g transform="translate(6.334088, 21.830453)"><g><path d="M 14.765625 1.3125 C 13.953125 1.382812 13.300781 1.222656 12.8125 0.828125 C 12.332031 0.429688 11.988281 -0.0859375 11.78125 -0.734375 C 11.582031 -1.390625 11.484375 -2.050781 11.484375 -2.71875 C 11.484375 -3.28125 11.53125 -3.875 11.625 -4.5 C 11.726562 -5.132812 11.847656 -5.800781 11.984375 -6.5 L 7.25 -6.5 C 6.59375 -5.238281 5.894531 -4.09375 5.15625 -3.0625 C 4.425781 -2.03125 3.625 -1.207031 2.75 -0.59375 C 1.882812 0.0078125 0.898438 0.3125 -0.203125 0.3125 C -1.210938 0.3125 -2.007812 0.0234375 -2.59375 -0.546875 C -3.1875 -1.128906 -3.484375 -1.914062 -3.484375 -2.90625 C -3.484375 -3.75 -3.285156 -4.535156 -2.890625 -5.265625 C -2.492188 -6.003906 -1.976562 -6.601562 -1.34375 -7.0625 C -0.71875 -7.519531 -0.0664062 -7.75 0.609375 -7.75 C 1.148438 -7.75 1.550781 -7.632812 1.8125 -7.40625 C 2.070312 -7.1875 2.222656 -6.921875 2.265625 -6.609375 C 1.453125 -6.609375 0.664062 -6.441406 -0.09375 -6.109375 C -0.863281 -5.785156 -1.492188 -5.347656 -1.984375 -4.796875 C -2.472656 -4.242188 -2.71875 -3.613281 -2.71875 -2.90625 C -2.71875 -2.144531 -2.503906 -1.539062 -2.078125 -1.09375 C -1.660156 -0.65625 -1.035156 -0.4375 -0.203125 -0.4375 C 0.722656 -0.4375 1.570312 -0.703125 2.34375 -1.234375 C 3.125 -1.765625 3.84375 -2.488281 4.5 -3.40625 C 5.15625 -4.320312 5.78125 -5.351562 6.375 -6.5 L 4.546875 -6.5 L 4.546875 -7.25 L 6.78125 -7.25 C 7.09375 -7.863281 7.398438 -8.5 7.703125 -9.15625 C 8.015625 -9.820312 8.328125 -10.484375 8.640625 -11.140625 C 9.160156 -12.234375 9.679688 -13.320312 10.203125 -14.40625 C 10.722656 -15.488281 11.25 -16.472656 11.78125 -17.359375 C 12.320312 -18.253906 12.890625 -18.96875 13.484375 -19.5 C 14.085938 -20.03125 14.71875 -20.296875 15.375 -20.296875 C 15.9375 -20.296875 16.351562 -20.128906 16.625 -19.796875 C 16.90625 -19.472656 17.09375 -19.097656 17.1875 -18.671875 C 17.289062 -18.242188 17.34375 -17.890625 17.34375 -17.609375 C 17.34375 -16.960938 17.222656 -16.175781 16.984375 -15.25 C 16.753906 -14.320312 16.46875 -13.289062 16.125 -12.15625 C 15.78125 -11.03125 15.425781 -9.859375 15.0625 -8.640625 C 14.707031 -7.421875 14.410156 -6.207031 14.171875 -5 C 13.941406 -3.789062 13.828125 -2.632812 13.828125 -1.53125 C 13.828125 -0.21875 14.140625 0.726562 14.765625 1.3125 Z M 7.625 -7.25 L 12.15625 -7.25 C 12.40625 -8.351562 12.691406 -9.476562 13.015625 -10.625 C 13.347656 -11.78125 13.671875 -12.875 13.984375 -13.90625 C 14.304688 -14.9375 14.566406 -15.867188 14.765625 -16.703125 C 14.972656 -17.535156 15.078125 -18.179688 15.078125 -18.640625 C 15.078125 -18.765625 15.050781 -18.894531 15 -19.03125 C 14.957031 -19.164062 14.859375 -19.234375 14.703125 -19.234375 C 14.359375 -19.234375 13.976562 -19.003906 13.5625 -18.546875 C 13.144531 -18.085938 12.707031 -17.460938 12.25 -16.671875 C 11.800781 -15.878906 11.328125 -14.976562 10.828125 -13.96875 C 10.335938 -12.96875 9.84375 -11.925781 9.34375 -10.84375 C 9.050781 -10.25 8.765625 -9.644531 8.484375 -9.03125 C 8.203125 -8.425781 7.914062 -7.832031 7.625 -7.25 Z M 7.625 -7.25 "/></g></g></g><g fill="#ffffff" fill-opacity="1"><g transform="translate(23.009165, 21.830453)"><g><path d="M 2.296875 0 C 1.828125 0 1.40625 -0.238281 1.03125 -0.71875 C 0.65625 -1.207031 0.46875 -1.984375 0.46875 -3.046875 C 0.46875 -4.628906 0.640625 -6.007812 0.984375 -7.1875 C 1.335938 -8.375 1.800781 -9.296875 2.375 -9.953125 C 2.957031 -10.609375 3.585938 -10.9375 4.265625 -10.9375 C 4.421875 -10.9375 4.585938 -10.921875 4.765625 -10.890625 C 4.953125 -10.859375 5.113281 -10.804688 5.25 -10.734375 C 4.632812 -9.722656 4.132812 -8.726562 3.75 -7.75 C 3.375 -6.78125 3.117188 -5.957031 2.984375 -5.28125 C 3.429688 -6.207031 3.945312 -7.101562 4.53125 -7.96875 C 5.125 -8.84375 5.753906 -9.554688 6.421875 -10.109375 C 7.085938 -10.660156 7.738281 -10.9375 8.375 -10.9375 C 8.957031 -10.9375 9.398438 -10.734375 9.703125 -10.328125 C 10.003906 -9.921875 10.15625 -9.4375 10.15625 -8.875 C 10.15625 -8.394531 10.023438 -7.859375 9.765625 -7.265625 C 9.515625 -6.671875 9.21875 -6.035156 8.875 -5.359375 C 8.53125 -4.679688 8.21875 -3.960938 7.9375 -3.203125 C 7.65625 -2.441406 7.484375 -1.625 7.421875 -0.75 C 7.804688 -0.96875 8.222656 -1.375 8.671875 -1.96875 C 9.117188 -2.570312 9.550781 -3.269531 9.96875 -4.0625 C 10.394531 -4.851562 10.765625 -5.632812 11.078125 -6.40625 L 11.796875 -6.40625 C 11.523438 -5.675781 11.207031 -4.929688 10.84375 -4.171875 C 10.476562 -3.421875 10.085938 -2.726562 9.671875 -2.09375 C 9.253906 -1.46875 8.84375 -0.960938 8.4375 -0.578125 C 8.03125 -0.191406 7.65625 0 7.3125 0 C 6.863281 0 6.515625 -0.125 6.265625 -0.375 C 6.015625 -0.625 5.832031 -0.9375 5.71875 -1.3125 C 5.613281 -1.695312 5.5625 -2.070312 5.5625 -2.4375 C 5.5625 -3.050781 5.675781 -3.707031 5.90625 -4.40625 C 6.144531 -5.101562 6.421875 -5.789062 6.734375 -6.46875 C 7.054688 -7.144531 7.332031 -7.757812 7.5625 -8.3125 C 7.800781 -8.863281 7.921875 -9.289062 7.921875 -9.59375 C 7.921875 -9.726562 7.894531 -9.8125 7.84375 -9.84375 C 7.789062 -9.875 7.726562 -9.890625 7.65625 -9.890625 C 7.40625 -9.890625 7.0625 -9.660156 6.625 -9.203125 C 6.1875 -8.753906 5.722656 -8.160156 5.234375 -7.421875 C 4.742188 -6.691406 4.273438 -5.882812 3.828125 -5 C 3.378906 -4.125 3.007812 -3.25 2.71875 -2.375 C 2.4375 -1.507812 2.296875 -0.71875 2.296875 0 Z M 2.296875 0 "/></g></g></g><g fill="#ffffff" fill-opacity="1"><g transform="translate(33.304214, 21.830453)"><g><path d="M 5.359375 -12.640625 C 4.898438 -12.640625 4.476562 -12.796875 4.09375 -13.109375 C 3.707031 -13.429688 3.515625 -13.941406 3.515625 -14.640625 C 3.648438 -14.609375 3.863281 -14.671875 4.15625 -14.828125 C 4.457031 -14.992188 4.789062 -15.171875 5.15625 -15.359375 C 5.53125 -15.554688 5.867188 -15.65625 6.171875 -15.65625 C 6.523438 -15.65625 6.785156 -15.53125 6.953125 -15.28125 C 7.128906 -15.03125 7.21875 -14.769531 7.21875 -14.5 C 7.21875 -14.070312 7.054688 -13.65625 6.734375 -13.25 C 6.421875 -12.84375 5.960938 -12.640625 5.359375 -12.640625 Z M 0.546875 -4.234375 C 0.546875 -5.492188 0.722656 -6.628906 1.078125 -7.640625 C 1.441406 -8.648438 1.894531 -9.453125 2.4375 -10.046875 C 2.976562 -10.640625 3.539062 -10.9375 4.125 -10.9375 C 4.539062 -10.9375 4.894531 -10.867188 5.1875 -10.734375 C 4.414062 -9.472656 3.8125 -8.15625 3.375 -6.78125 C 2.9375 -5.414062 2.71875 -4.21875 2.71875 -3.1875 C 2.71875 -2.820312 2.726562 -2.445312 2.75 -2.0625 C 2.769531 -1.675781 2.835938 -1.328125 2.953125 -1.015625 C 3.328125 -1.421875 3.691406 -1.941406 4.046875 -2.578125 C 4.398438 -3.210938 4.734375 -3.875 5.046875 -4.5625 C 5.359375 -5.25 5.617188 -5.863281 5.828125 -6.40625 L 6.546875 -6.40625 C 6.109375 -5.1875 5.644531 -4.09375 5.15625 -3.125 C 4.675781 -2.164062 4.234375 -1.40625 3.828125 -0.84375 C 3.421875 -0.28125 3.082031 0 2.8125 0 C 2.132812 0 1.585938 -0.394531 1.171875 -1.1875 C 0.753906 -1.976562 0.546875 -2.992188 0.546875 -4.234375 Z M 0.546875 -4.234375 "/></g></g></g><g fill="#ffffff" fill-opacity="1"><g transform="translate(38.350238, 21.830453)"><g><path d="M 6.640625 5.25 C 6.328125 5.25 6.066406 5.082031 5.859375 4.75 C 5.660156 4.425781 5.5 4.007812 5.375 3.5 C 5.25 3 5.15625 2.484375 5.09375 1.953125 C 5.039062 1.421875 5.015625 0.941406 5.015625 0.515625 C 5.015625 0.109375 5.035156 -0.5 5.078125 -1.3125 C 5.128906 -2.132812 5.253906 -3.078125 5.453125 -4.140625 C 5.085938 -3.410156 4.726562 -2.722656 4.375 -2.078125 C 4.03125 -1.441406 3.671875 -0.9375 3.296875 -0.5625 C 2.929688 -0.1875 2.519531 0 2.0625 0 C 1.425781 0 0.921875 -0.253906 0.546875 -0.765625 C 0.179688 -1.273438 0 -2.003906 0 -2.953125 C 0 -3.734375 0.144531 -4.578125 0.4375 -5.484375 C 0.726562 -6.390625 1.144531 -7.257812 1.6875 -8.09375 C 2.226562 -8.925781 2.890625 -9.609375 3.671875 -10.140625 C 4.453125 -10.671875 5.34375 -10.9375 6.34375 -10.9375 C 6.738281 -10.9375 7.070312 -10.878906 7.34375 -10.765625 C 7.625 -10.660156 7.875 -10.53125 8.09375 -10.375 C 8.519531 -10.75 9.003906 -10.9375 9.546875 -10.9375 C 9.960938 -10.9375 10.335938 -10.867188 10.671875 -10.734375 C 10.066406 -9.898438 9.460938 -8.859375 8.859375 -7.609375 C 8.265625 -6.359375 7.765625 -4.789062 7.359375 -2.90625 C 6.953125 -1.03125 6.734375 1.300781 6.703125 4.09375 C 7.046875 3.4375 7.429688 2.628906 7.859375 1.671875 C 8.285156 0.710938 8.710938 -0.28125 9.140625 -1.3125 C 9.578125 -2.351562 9.972656 -3.328125 10.328125 -4.234375 C 10.691406 -5.140625 10.972656 -5.863281 11.171875 -6.40625 L 11.890625 -6.40625 C 11.734375 -6.019531 11.519531 -5.460938 11.25 -4.734375 C 10.976562 -4.015625 10.671875 -3.210938 10.328125 -2.328125 C 9.992188 -1.453125 9.644531 -0.570312 9.28125 0.3125 C 8.914062 1.207031 8.554688 2.023438 8.203125 2.765625 C 7.859375 3.515625 7.550781 4.113281 7.28125 4.5625 C 7.007812 5.019531 6.796875 5.25 6.640625 5.25 Z M 2.578125 -0.921875 C 3.097656 -1.546875 3.578125 -2.269531 4.015625 -3.09375 C 4.453125 -3.914062 4.863281 -4.753906 5.25 -5.609375 C 5.632812 -6.472656 6.019531 -7.28125 6.40625 -8.03125 C 6.789062 -8.78125 7.195312 -9.410156 7.625 -9.921875 C 6.945312 -10.210938 6.3125 -10.191406 5.71875 -9.859375 C 5.132812 -9.523438 4.609375 -9 4.140625 -8.28125 C 3.679688 -7.570312 3.304688 -6.765625 3.015625 -5.859375 C 2.722656 -4.953125 2.53125 -4.054688 2.4375 -3.171875 C 2.351562 -2.296875 2.398438 -1.546875 2.578125 -0.921875 Z M 2.578125 -0.921875 "/></g></g></g><g fill="#ffffff" fill-opacity="1"><g transform="translate(48.732287, 21.830453)"><g><path d="M 2.0625 0 C 1.425781 0 0.921875 -0.253906 0.546875 -0.765625 C 0.179688 -1.273438 0 -2.003906 0 -2.953125 C 0 -3.734375 0.144531 -4.578125 0.4375 -5.484375 C 0.726562 -6.390625 1.144531 -7.257812 1.6875 -8.09375 C 2.226562 -8.925781 2.890625 -9.609375 3.671875 -10.140625 C 4.453125 -10.671875 5.34375 -10.9375 6.34375 -10.9375 C 6.738281 -10.9375 7.070312 -10.878906 7.34375 -10.765625 C 7.625 -10.660156 7.875 -10.53125 8.09375 -10.375 C 8.519531 -10.75 8.984375 -10.9375 9.484375 -10.9375 C 9.910156 -10.9375 10.285156 -10.867188 10.609375 -10.734375 C 9.929688 -9.816406 9.410156 -8.867188 9.046875 -7.890625 C 8.679688 -6.921875 8.429688 -5.972656 8.296875 -5.046875 C 8.160156 -4.117188 8.09375 -3.257812 8.09375 -2.46875 C 8.09375 -2.226562 8.097656 -2.007812 8.109375 -1.8125 C 8.117188 -1.625 8.140625 -1.445312 8.171875 -1.28125 C 8.796875 -2.007812 9.316406 -2.773438 9.734375 -3.578125 C 10.160156 -4.378906 10.609375 -5.320312 11.078125 -6.40625 L 11.796875 -6.40625 C 11.066406 -4.507812 10.332031 -2.96875 9.59375 -1.78125 C 8.863281 -0.59375 8.1875 0 7.5625 0 C 7.238281 0 6.9375 -0.171875 6.65625 -0.515625 C 6.375 -0.867188 6.148438 -1.316406 5.984375 -1.859375 C 5.816406 -2.398438 5.734375 -2.96875 5.734375 -3.5625 C 5.734375 -3.800781 5.742188 -4.039062 5.765625 -4.28125 C 5.785156 -4.519531 5.828125 -4.765625 5.890625 -5.015625 C 5.441406 -4.148438 5.023438 -3.332031 4.640625 -2.5625 C 4.253906 -1.800781 3.859375 -1.179688 3.453125 -0.703125 C 3.046875 -0.234375 2.582031 0 2.0625 0 Z M 2.578125 -0.921875 C 3.003906 -1.316406 3.425781 -1.90625 3.84375 -2.6875 C 4.257812 -3.46875 4.675781 -4.320312 5.09375 -5.25 C 5.519531 -6.175781 5.941406 -7.054688 6.359375 -7.890625 C 6.773438 -8.734375 7.195312 -9.410156 7.625 -9.921875 C 6.945312 -10.210938 6.316406 -10.191406 5.734375 -9.859375 C 5.160156 -9.523438 4.644531 -9 4.1875 -8.28125 C 3.738281 -7.570312 3.367188 -6.765625 3.078125 -5.859375 C 2.785156 -4.953125 2.59375 -4.054688 2.5 -3.171875 C 2.414062 -2.296875 2.441406 -1.546875 2.578125 -0.921875 Z M 2.578125 -0.921875 "/></g></g></g><g fill="#ffffff" fill-opacity="1"><g transform="translate(59.027337, 21.830453)"><g><path d="M 2.234375 0 C 1.921875 0 1.617188 -0.0859375 1.328125 -0.265625 C 1.046875 -0.453125 0.90625 -0.75 0.90625 -1.15625 C 0.90625 -1.695312 1.113281 -2.140625 1.53125 -2.484375 C 1.957031 -2.835938 2.429688 -3.015625 2.953125 -3.015625 C 3.398438 -3.015625 3.738281 -2.890625 3.96875 -2.640625 C 4.207031 -2.390625 4.328125 -2.097656 4.328125 -1.765625 C 4.328125 -1.328125 4.125 -0.921875 3.71875 -0.546875 C 3.320312 -0.179688 2.828125 0 2.234375 0 Z M 2.234375 0 "/></g></g></g></svg>